<svg width="77" height="77" viewBox="0 0 77 77" fill="none" xmlns="http://www.w3.org/2000/svg">
<path d="M39 9C22.4586 9 9 22.4586 9 39C9 55.5414 22.4586 69 39 69C55.5414 69 69 55.5414 69 39C69 22.4586 55.5414 9 39 9ZM39 13.5957C53.0576 13.5957 64.4043 24.9424 64.4043 39C64.4043 53.0576 53.0576 64.4043 39 64.4043C24.9424 64.4043 13.5957 53.0576 13.5957 39C13.5957 24.9424 24.9424 13.5957 39 13.5957ZM38.0614 18.2865C37.0112 18.2865 36.1061 18.6664 35.3461 19.4262C34.6088 20.186 34.24 21.08 34.24 22.1081C34.24 23.1583 34.6089 24.0523 35.3463 24.7897C36.1058 25.5271 37.0109 25.896 38.0613 25.896C39.1117 25.896 40.0056 25.5271 40.7429 24.7897C41.4804 24.0522 41.8492 23.1582 41.8492 22.1081C41.8492 21.08 41.4693 20.186 40.7096 19.4262C39.9721 18.6664 39.0895 18.2865 38.0614 18.2865ZM30.0499 28.8124V32.3991H35.9497V56.1604H30.0498V59.7135H47.9502V56.1603H42.1174V28.8124H30.0498H30.0499Z" fill="#D0C7B6"/>
</svg>
