<svg width="77" height="77" viewBox="0 0 77 77" fill="none" xmlns="http://www.w3.org/2000/svg">
<path d="M22.3032 8L18.2726 15.3478L21.075 16.8793L50.9673 19.2023L55.9321 15.2445L50.3619 16.1565L52.8356 9.97891L22.3032 8ZM55.9148 10.3403L59.6859 15.038L57.9734 32.7449L58.4577 53.4116L66 60.8626L63.9068 52.0522L64.8583 32.6245L60.4817 13.7474L55.9148 10.3403ZM55.7072 18.4452L49.7218 23.5043L21.6285 20.9747L15.868 28.5806L13.55 50.0217L43.5115 54.8571L13.2594 52.7233L12 64.373L45.7777 68.9675L47.3 31.7125L55.7072 18.4452ZM56.7624 21.6803L50.3273 32.7449L49.2547 64.7344L55.465 54.3064L55.5169 32.7449L56.7624 21.6803ZM57.3852 56.2853L49.2547 70L65.308 64.7344L57.3852 56.2853Z" fill="#D0C7B6" fill-opacity="0.3"/>
</svg>
