<svg width="77" height="77" viewBox="0 0 77 77" fill="none" xmlns="http://www.w3.org/2000/svg">
<path d="M34.9121 8L18.1589 10.1744L22.0227 10.4439L34.9574 9.70043L50.6842 10.6771L52.284 10.2395L58.7287 10.0275L34.9121 8ZM15.0106 11.3009L16.0158 52.2386L42.1416 56.1452L16.1093 55.2518L15 65.3514L45.4469 70L47.0468 55.5698L45.9903 13.2467L34.7762 12.4775C34.6404 18.1542 26.3393 17.6545 26.4148 11.9793L15.0106 11.3009ZM63 11.6765L55.6045 11.9551L56.012 52.9805L62.5623 63.383L61.5662 53.465L63 11.6765ZM53.0689 12.1065L49.4164 13.2467L49.7031 55.2215L48.0127 67.6076L53.5518 52.9805L53.0689 12.1065ZM55.0309 56.0695L49.8993 69.3943L61.4454 65.7148L55.0309 56.0695Z" fill="#D0C7B6"/>
</svg>
