<svg width="77" height="77" viewBox="0 0 77 77" fill="none" xmlns="http://www.w3.org/2000/svg">
<path d="M18.1534 9C17.7841 9.00025 17.4145 9.02225 17.046 9.06725C11.1493 9.78675 7.74182 16.0825 9.43379 23.1288C9.83564 24.7991 10.4946 26.3965 11.3871 27.8636C11.3863 27.8523 11.3862 27.8414 11.3854 27.8302C11.5594 28.1205 11.7634 28.3918 11.9939 28.6394C13.4055 30.1557 15.4767 30.3923 16.61 29.2267C17.7433 28.0611 17.5082 25.8977 16.0969 24.3814C15.92 25.3323 15.1188 26.07 14.1185 26.07C12.9897 26.07 12.0674 25.1454 12.0674 24.0142C12.0674 23.7773 12.1 23.5931 12.1708 23.3958C13.3809 20.6689 15.8643 18.5638 19.0152 17.9754C22.7822 17.272 26.4404 18.9337 28.4717 21.9118C29.0508 23.5712 29.2341 25.0248 29.1763 26.3758C29.0709 28.841 28.1262 31.0648 27.0258 33.5713C25.4973 37.0522 23.762 41.0899 24.1999 46.671C24.3611 53.9397 28.1471 60.9635 34.8491 64.9466C45.1813 71.0874 58.5256 67.6743 64.6554 57.3242C70.785 46.9745 67.3794 33.6065 57.047 27.4658C55.4428 26.511 53.7228 25.7668 51.9292 25.2513C57.5798 29.6001 59.505 37.3332 56.5308 43.839C56.4631 43.2927 56.3608 42.7512 56.2247 42.2179C54.4784 35.3667 47.5723 31.1476 40.7344 32.8963C39.6201 33.1808 38.6146 33.7159 37.659 34.2548C42.1577 33.618 46.4581 36.338 47.6085 40.8502C48.8417 45.6904 45.9604 50.5557 41.1281 51.791C39.9163 52.1009 38.6539 52.1577 37.4193 51.9577C36.4777 51.6224 35.5707 51.1962 34.7113 50.6852C32.8644 49.5876 31.3335 48.1616 30.1433 46.5276C28.0365 42.4914 27.5876 38.6146 29.1124 34.6644L29.108 34.6626L29.1718 34.5176C30.2754 32.0041 31.3902 29.4733 31.5186 26.4766C31.5684 25.3142 31.4621 24.0959 31.1604 22.8027C31.0939 22.0561 30.971 21.2943 30.7857 20.5231C29.1995 13.917 23.694 8.99648 18.1534 9ZM53.5798 16.2314C50.0009 16.1871 46.7477 18.6713 45.1552 23.9871C49.0146 19.8031 61.3341 23.1866 68 36.12C66.4119 23.4026 59.5439 16.3051 53.5794 16.2313L53.5798 16.2314Z" fill="#D0C7B6" fill-opacity="0.3"/>
</svg>
