<svg width="110" height="10" viewBox="0 0 110 10" fill="none" xmlns="http://www.w3.org/2000/svg">
<path d="M3.11364 4.77841V5.40341H0.568182V4.77841H3.11364ZM5.62014 8.07955C5.28681 8.07955 4.98662 8.01326 4.71957 7.88068C4.45253 7.74811 4.23851 7.56629 4.07753 7.33523C3.91654 7.10417 3.82848 6.84091 3.81332 6.54545H4.49514C4.52166 6.80871 4.64098 7.02652 4.8531 7.19886C5.06711 7.36932 5.32279 7.45455 5.62014 7.45455C5.85878 7.45455 6.0709 7.39867 6.25651 7.28693C6.44401 7.17519 6.59079 7.02178 6.69685 6.8267C6.8048 6.62973 6.85878 6.4072 6.85878 6.15909C6.85878 5.9053 6.80291 5.67898 6.69116 5.48011C6.58132 5.27936 6.4298 5.12121 6.23662 5.00568C6.04344 4.89015 5.82279 4.83144 5.57469 4.82955C5.39666 4.82765 5.21389 4.85511 5.02639 4.91193C4.83889 4.96686 4.68454 5.03788 4.56332 5.125L3.90423 5.04545L4.25651 2.18182H7.27923V2.80682H4.84741L4.64287 4.52273H4.67696C4.79628 4.42803 4.9459 4.34943 5.12582 4.28693C5.30575 4.22443 5.49325 4.19318 5.68832 4.19318C6.04438 4.19318 6.36162 4.27841 6.64003 4.44886C6.92033 4.61742 7.14003 4.84848 7.29912 5.14205C7.4601 5.43561 7.5406 5.77083 7.5406 6.14773C7.5406 6.51894 7.45726 6.85038 7.2906 7.14205C7.12582 7.43182 6.89855 7.66098 6.60878 7.82955C6.31901 7.99621 5.98946 8.07955 5.62014 8.07955Z" fill="#43877B"/>
<path d="M54.5 8.07955C54.072 8.07955 53.7074 7.96307 53.4062 7.73011C53.1051 7.49527 52.875 7.1553 52.7159 6.71023C52.5568 6.26326 52.4773 5.72348 52.4773 5.09091C52.4773 4.46212 52.5568 3.92519 52.7159 3.48011C52.8769 3.03314 53.108 2.69223 53.4091 2.45739C53.7121 2.22064 54.0758 2.10227 54.5 2.10227C54.9242 2.10227 55.2869 2.22064 55.5881 2.45739C55.8911 2.69223 56.1222 3.03314 56.2812 3.48011C56.4422 3.92519 56.5227 4.46212 56.5227 5.09091C56.5227 5.72348 56.4432 6.26326 56.2841 6.71023C56.125 7.1553 55.8949 7.49527 55.5938 7.73011C55.2926 7.96307 54.928 8.07955 54.5 8.07955ZM54.5 7.45455C54.9242 7.45455 55.2538 7.25 55.4886 6.84091C55.7235 6.43182 55.8409 5.84848 55.8409 5.09091C55.8409 4.58712 55.7869 4.15814 55.679 3.80398C55.5729 3.44981 55.4195 3.17992 55.2188 2.99432C55.0199 2.80871 54.7803 2.71591 54.5 2.71591C54.0795 2.71591 53.7509 2.9233 53.5142 3.33807C53.2775 3.75095 53.1591 4.33523 53.1591 5.09091C53.1591 5.5947 53.2121 6.02273 53.3182 6.375C53.4242 6.72727 53.5767 6.99527 53.7756 7.17898C53.9763 7.36269 54.2178 7.45455 54.5 7.45455Z" fill="#43877B"/>
<path d="M102.318 6.97727V3.22727H102.955V6.97727H102.318ZM100.761 5.42045V4.78409H104.511V5.42045H100.761ZM107.214 8.07955C106.881 8.07955 106.58 8.01326 106.313 7.88068C106.046 7.74811 105.832 7.56629 105.671 7.33523C105.51 7.10417 105.422 6.84091 105.407 6.54545H106.089C106.115 6.80871 106.235 7.02652 106.447 7.19886C106.661 7.36932 106.917 7.45455 107.214 7.45455C107.453 7.45455 107.665 7.39867 107.85 7.28693C108.038 7.17519 108.185 7.02178 108.291 6.8267C108.399 6.62973 108.453 6.4072 108.453 6.15909C108.453 5.9053 108.397 5.67898 108.285 5.48011C108.175 5.27936 108.024 5.12121 107.83 5.00568C107.637 4.89015 107.417 4.83144 107.168 4.82955C106.99 4.82765 106.808 4.85511 106.62 4.91193C106.433 4.96686 106.278 5.03788 106.157 5.125L105.498 5.04545L105.85 2.18182H108.873V2.80682H106.441L106.237 4.52273H106.271C106.39 4.42803 106.54 4.34943 106.72 4.28693C106.899 4.22443 107.087 4.19318 107.282 4.19318C107.638 4.19318 107.955 4.27841 108.234 4.44886C108.514 4.61742 108.734 4.84848 108.893 5.14205C109.054 5.43561 109.134 5.77083 109.134 6.14773C109.134 6.51894 109.051 6.85038 108.884 7.14205C108.72 7.43182 108.492 7.66098 108.203 7.82955C107.913 7.99621 107.583 8.07955 107.214 8.07955Z" fill="#43877B"/>
</svg>
